# xmcd
#
# Track frame offsets:
#	150
#	18560
#	33588
#	48804
#	65560
#	84065
#	98261
#	117384
#	138837
#	158967
#	174507
#	195592
#	213686
#
# Disc length: 3084 seconds
#
# Revision: 1
# Processed by: cddbd v1.5.2PL0 Copyright (c) Steve Scherf et al.
# Submitted via: audiograbber 1.83.01
#
DISCID=a50c0a0d
DTITLE=Ghighi N. Iovin - What a Friend We Have In Jesus
DYEAR=2016
DGENRE=Country
TTITLE0=I Stand Amazed In the Presence
TTITLE1=Bringing In th Sheaves
TTITLE2=Burdens Are Lifted At Calvary
TTITLE3=I Know Whom I Have Believed
TTITLE4=Softly and Tenderly
TTITLE5=Count Your Blessings
TTITLE6=How Great Thou Art
TTITLE7=Pass Me Not O Gentle Saviour
TTITLE8=Shall We Gather At the River
TTITLE9=Teach Me Thy Way O Lord
TTITLE10=Sweet Hour Of Prayer
TTITLE11=Are You Washed In the Blood
TTITLE12=What a Friend We Have In Jesus
EXTD=Verlag Mitternachtsruf
EXTT0=
EXTT1=
EXTT2=
EXTT3=
EXTT4=
EXTT5=
EXTT6=
EXTT7=
EXTT8=
EXTT9=
EXTT10=
EXTT11=
EXTT12=
PLAYORDER=
